<svg xmlns="http://www.w3.org/2000/svg" viewBox="0 0 1200 800" role="img" aria-label="Electric car illustration">
  <rect width="1200" height="800" fill="#020617"/>
  <rect x="170" y="220" width="860" height="320" rx="44" fill="#111827"/>
  <path d="M320 492h560c44 0 80-36 80-80v-26c0-24-20-44-44-44h-28l-68-92H468l-84 92H292c-24 0-44 20-44 44v24c0 6 5 10 10 10z" fill="#22c55e"/>
  <circle cx="420" cy="560" r="90" fill="#f8fafc"/>
  <circle cx="420" cy="560" r="46" fill="#111827"/>
  <circle cx="860" cy="560" r="90" fill="#f8fafc"/>
  <circle cx="860" cy="560" r="46" fill="#111827"/>
  <rect x="300" y="276" width="250" height="84" rx="18" fill="#4ade80"/>
  <rect x="590" y="264" width="190" height="76" rx="16" fill="#dcfce7" opacity="0.9"/>
  <text x="600" y="382" text-anchor="middle" font-family="Arial, sans-serif" font-size="42" fill="#fff">Electric Fleet</text>
</svg>